PathFileType	4	(X/Y/Z)	C:\Users\WrightLab\Desktop\Jo\P1_boxCal10.trc
DataRate	CameraRate	NumFrames	NumMarkers	Units	OrigDataRate	OrigDataStartFrame	OrigNumFrames
100.00	100.00	       23	19	mm	100.00	79	       625
Frame#	Time	Headset_Front			Headset_Back			Headset_Left			Headset_Right			Left_Shoulder			Right_Shoulder			Sternum			C7			Left Elbow			Right Elbow			Left Wrist			Right Wrist			Left ASIS			Right ASIS			S2			Left Knee			Right Knee			Left Ankle			Right Ankle			
		X1	Y1	Z1	X2	Y2	Z2	X3	Y3	Z3	X4	Y4	Z4	X5	Y5	Z5	X6	Y6	Z6	X7	Y7	Z7	X8	Y8	Z8	X9	Y9	Z9	X10	Y10	Z10	X11	Y11	Z11	X12	Y12	Z12	X13	Y13	Z13	X14	Y14	Z14	X15	Y15	Z15	X16	Y16	Z16	X17	Y17	Z17	X18	Y18	Z18	X19	Y19	Z19	

79	0.780																									71.75048	913.20117	-1641.80676				118.86543	729.16699	-1564.86401				-144.42192	829.19733	-1495.57458							-54.63269	405.13638	-1667.42944	-467.58896	82.13555	-1481.80994				-421.87390	444.96667	-1568.93811	
80	0.790																									69.36855	913.27307	-1637.93445				117.04520	729.06445	-1560.86646				-147.04123	828.56946	-1489.92896							-55.72889	404.21298	-1664.01184	-472.12628	82.99110	-1478.49475				-425.59247	443.03195	-1568.36853	
81	0.800																									66.09908	912.11969	-1631.45398				114.29607	728.68750	-1553.86499				-149.72411	827.82684	-1483.59473							-56.62786	404.27798	-1661.60229	-476.06009	82.74706	-1473.98340				-427.72101	442.47217	-1564.99683	
82	0.810																									63.76195	911.88605	-1626.70215				112.15067	727.95599	-1548.51697				-151.65279	828.20129	-1480.51270							-57.63610	404.14914	-1658.19800	-479.41623	83.94840	-1466.80615				-430.32605	442.54462	-1558.97913	
83	0.820																									61.09417	912.40198	-1623.31653				109.22864	728.42920	-1544.20459				-155.10283	826.72705	-1477.00537							-59.75819	403.61536	-1654.02966	-482.79282	85.11050	-1459.77026				-432.60388	442.42200	-1552.79724	
84	0.830																									58.67239	912.08209	-1618.37915				106.58636	728.25092	-1540.98389				-157.46312	824.10754	-1477.89575							-60.04811	403.25317	-1651.42212	-485.82208	83.46162	-1458.34924				-436.46716	441.94586	-1548.78491	
85	0.840																									55.07468	911.09045	-1611.53052				101.93195	727.39746	-1532.74353				-161.47464	824.84412	-1469.67261							-61.99731	402.60837	-1647.21387	-490.64990	84.14486	-1450.75574				-440.27051	441.43408	-1546.52405	
86	0.850																									52.45874	910.97504	-1606.75024				99.55225	727.08197	-1529.23328				-163.94545	825.10254	-1463.34131							-63.23646	402.31882	-1644.07288	-492.60248	81.97878	-1449.47058				-443.31387	438.58789	-1541.84802	
87	0.860																									48.71934	911.23193	-1601.93579				95.68136	727.14630	-1522.94336				-166.53670	824.66785	-1456.63379							-65.62982	402.14987	-1639.67090	-496.09995	83.18203	-1439.54980				-445.54114	439.95334	-1534.22339	
88	0.870																									45.76833	909.79639	-1594.68445				92.79070	726.61395	-1516.72253				-169.63060	822.77362	-1453.00244							-67.59321	401.17264	-1634.69165	-497.47879	79.57547	-1441.00464				-448.26196	439.51074	-1525.97607	
89	0.880																									42.02973	910.61481	-1590.71667				89.71408	727.17200	-1511.42139				-173.83194	821.46021	-1450.11877							-69.68803	401.05328	-1630.34619	-501.32953	81.07127	-1431.73755				-450.77814	437.51205	-1521.62073	
90	0.890																									38.20713	911.45508	-1586.67468				85.84145	727.14142	-1505.61426				-178.14314	822.03064	-1442.31360							-71.81853	400.43915	-1625.79907	-502.88867	78.28618	-1434.35071				-454.72208	436.98871	-1514.27893	
91	0.900																									34.90988	910.06445	-1579.21851				82.31763	726.45270	-1499.00195				-180.69133	822.18073	-1436.63916							-74.73874	399.61639	-1620.39343	-504.55829	72.83014	-1435.12000				-457.20105	434.05493	-1515.20386	
92	0.910																									30.31873	910.15002	-1573.56238				78.07344	726.49036	-1492.84094				-185.18544	821.65460	-1426.99658							-77.24699	399.42581	-1615.52588	-507.21759	72.96822	-1426.51245				-461.45206	432.23669	-1506.83289	
93	0.920																									25.85592	910.70337	-1568.72522				72.92620	726.92615	-1487.36194				-189.84953	820.30377	-1425.56238							-79.60669	399.06259	-1610.82312	-508.76611	70.65229	-1424.24158				-463.63495	433.44287	-1499.13354	
94	0.930																									21.41760	910.24811	-1562.12146				69.20410	726.47797	-1480.85266				-194.77025	820.72894	-1417.86963							-82.18959	398.69714	-1605.19312	-509.26828	66.88631	-1423.30908				-466.29916	430.13837	-1492.50195	
95	0.940																									17.02434	909.91571	-1555.87354				65.53497	727.12128	-1475.05823				-198.72484	821.85626	-1408.21143							-84.64707	398.23093	-1599.31458	-510.33243	63.68563	-1421.54102				-468.99261	429.89090	-1481.62280	
96	0.950																									12.27610	910.44751	-1550.95264				60.84953	726.89349	-1467.93640				-203.96239	819.65662	-1406.68335							-87.65891	398.42169	-1593.08411	-510.55841	62.06978	-1422.26697				-472.06720	428.65994	-1474.26685	
97	0.960																									7.27506	910.43970	-1544.53320				55.83426	726.57880	-1461.27625				-210.26120	820.52209	-1397.20959							-90.66716	398.12326	-1586.45740	-511.92194	60.63556	-1418.14575				-474.62244	425.52597	-1469.78125	
98	0.970																									2.08534	910.40320	-1538.24036				51.15234	728.04224	-1455.84705				-213.98650	820.52911	-1390.20654				-236.55276	851.42090	-1714.97925	-94.31146	397.83902	-1579.70068	-514.74976	61.48323	-1411.34998				-478.48257	424.79364	-1467.97742	
99	0.980																									-3.32257	910.66479	-1532.33875				46.35548	727.96820	-1449.35474				-221.58841	821.12030	-1384.01428				-242.06493	850.45477	-1708.31030	-98.08476	397.24371	-1571.32129	-515.83392	60.67016	-1410.25244				-483.05762	422.49368	-1461.45557	
100	0.990													-113.09901	1222.29370	-1473.64551										-8.98254	910.14374	-1524.90076				41.06214	727.83508	-1440.91101				-226.62421	821.42407	-1374.26648				-247.70129	849.48511	-1700.83887	-101.19924	397.21255	-1564.39868	-517.22119	56.17320	-1409.80115				-485.66412	423.78412	-1452.41223	
101	1.000													-119.50097	1222.24939	-1467.67566										-14.45496	910.42194	-1518.74109				37.01775	729.34644	-1434.70056				-233.16249	820.93652	-1369.64856				-253.56783	848.62012	-1693.73438	-105.28358	396.90839	-1555.65771	-521.56470	58.11366	-1400.35217				-489.21649	423.06311	-1443.24316	
